<svg data-name="Layer 1" xmlns="http://www.w3.org/2000/svg" viewBox="0 0 561.3 75.4"><path d="M491.1 69.5h26.1v-.2l-3.7-2.1c-4.3-2.5-4.3-4.2-4.3-11.7V36.1l25.3 26.3C541 69 545.6 71 551.6 71a17.8 17.8 0 009.6-2.8V68c-5.2-.8-10.9-3.7-16.6-9.5l-27.2-27.3 24.2-21A46 46 0 01553 3l3.2-1.6v-.2h-23v.2l2 1.9c2.4 2.2 2.8 3.7.3 5.9l-26.4 23.3V15.2c0-7.5 0-9.2 4.3-11.7l3.7-2.1v-.2h-26v.2l3.7 2.1c4.3 2.5 4.3 4.2 4.3 11.7v40.3c0 7.5 0 9.2-4.3 11.7l-3.8 2.1zM418.4 1.4l3.8 2.1c4.2 2.5 4.2 4.2 4.2 11.7v45.7c0 4.2-.6 5-3.4 6.5l-3.6 2v.2h37a40.8 40.8 0 017.5.4l1.5-17.2h-.2l-3.2 4.4c-4.2 5.8-6.5 7.3-15.3 7.3a63 63 0 01-10.2-.6V15.2c0-7.5 0-9.2 4.2-11.7l3.8-2.1v-.2h-26.1zm-88 32.9c0-16.9 10.7-29.1 27-29.1 15.4 0 26.8 13.5 26.8 31.2 0 16.9-10.5 29.1-26.8 29.1-15.4 0-27-13.4-27-31.2m-10.8 2c0 19.1 17.8 34.4 37.8 34.4s37.8-16 37.8-36.3c0-19.1-17.8-34.4-37.8-34.4s-37.8 16-37.8 36.3M251 69.5h28.1v-.2l-3.8-2c-5.9-3.1-6.2-4.9-6.2-12V35.7h11.1c4.7 0 7.4.7 8.7 2.8l1.2 1.8h.2l1.5-15.3h-.2l-1.7 2.1c-1.8 2.4-3.9 3.6-8.7 3.6h-12v-24l10.6-.5c6.6-.3 8.6.8 11 5.5l2 4.2h.3L294.6.7a54.6 54.6 0 01-8 .5h-35.5v.2l3.8 2.1c4.3 2.5 4.3 4.2 4.3 11.7v40.3c0 7.5 0 9.2-4.3 11.7l-3.8 2.1zm-103.1 0h23.7v-.2l-4.5-2.6c-3.9-2.3-4.2-4.2-4.2-9.8V20.3l50.4 50.2h.2V13.8c0-5.6.3-7.3 4.2-9.7l4.7-2.7v-.2h-24v.2l4.7 2.7c4 2.4 4.3 4.1 4.3 9.7v36.6L157.2.2h-.2v56.7c0 5.6-.3 7.3-4.3 9.7l-4.7 2.7zm-55.5 0h26.1v-.2l-3.8-2.1c-4.3-2.5-4.3-4.2-4.3-11.7V15.2c0-7.5 0-9.2 4.3-11.7l3.8-2.1v-.2H92.5v.2l3.8 2.1c4.2 2.5 4.2 4.2 4.2 11.7v40.3c0 7.5 0 9.2-4.2 11.7l-3.8 2.1zM0 69.5h26.1v-.2l-3.8-2.1c-4.2-2.5-4.2-4.2-4.2-11.7V36.1l25.3 26.3C50 69 54.5 71 60.5 71a17.7 17.7 0 009.6-2.8V68c-5.2-.8-10.9-3.7-16.7-9.5l-27-27.3 24-21c3.3-3 6.4-4.7 11.6-7.3l3.2-1.5v-.2h-23v.2l2 1.8c2.4 2.3 2.8 3.7.3 6L18 32.4V15.2c0-7.5 0-9.2 4.2-11.7l3.8-2.1v-.2H0v.2l3.8 2.1C8 6 8 7.7 8 15.2v40.3c0 7.5 0 9.2-4.3 11.7L0 69.3z"/></svg>