<svg width="562" height="76" viewBox="0 0 562 76" fill="none" xmlns="http://www.w3.org/2000/svg">
<g clip-path="url(#clip0_2_4)">
<path d="M491.1 69.5H517.2V69.3L513.5 67.2C509.2 64.7 509.2 63 509.2 55.5V36.1L534.5 62.4C541 69 545.6 71 551.6 71C555.002 71.0032 558.333 70.0315 561.2 68.2V68C556 67.2 550.3 64.3 544.6 58.5L517.4 31.2L541.6 10.2C545.026 7.25308 548.867 4.82703 553 3L556.2 1.4V1.2H533.2V1.4L535.2 3.3C537.6 5.5 538 7 535.5 9.2L509.1 32.5V15.2C509.1 7.7 509.1 6 513.4 3.5L517.1 1.4V1.2H491.1V1.4L494.8 3.5C499.1 6 499.1 7.7 499.1 15.2V55.5C499.1 63 499.1 64.7 494.8 67.2L491 69.3L491.1 69.5ZM418.4 1.4L422.2 3.5C426.4 6 426.4 7.7 426.4 15.2V60.9C426.4 65.1 425.8 65.9 423 67.4L419.4 69.4V69.6H456.4C458.907 69.5025 461.418 69.6364 463.9 70L465.4 52.8H465.2L462 57.2C457.8 63 455.5 64.5 446.7 64.5C443.289 64.5765 439.878 64.3758 436.5 63.9V15.2C436.5 7.7 436.5 6 440.7 3.5L444.5 1.4V1.2H418.4V1.4ZM330.4 34.3C330.4 17.4 341.1 5.2 357.4 5.2C372.8 5.2 384.2 18.7 384.2 36.4C384.2 53.3 373.7 65.5 357.4 65.5C342 65.5 330.4 52.1 330.4 34.3ZM319.6 36.3C319.6 55.4 337.4 70.7 357.4 70.7C377.4 70.7 395.2 54.7 395.2 34.4C395.2 15.3 377.4 0 357.4 0C337.4 0 319.6 16 319.6 36.3M251 69.5H279.1V69.3L275.3 67.3C269.4 64.2 269.1 62.4 269.1 55.3V35.7H280.2C284.9 35.7 287.6 36.4 288.9 38.5L290.1 40.3H290.3L291.8 25H291.6L289.9 27.1C288.1 29.5 286 30.7 281.2 30.7H269.2V6.7L279.8 6.2C286.4 5.9 288.4 7 290.8 11.7L292.8 15.9H293.1L294.6 0.7C291.949 1.06245 289.275 1.22956 286.6 1.2H251.1V1.4L254.9 3.5C259.2 6 259.2 7.7 259.2 15.2V55.5C259.2 63 259.2 64.7 254.9 67.2L251.1 69.3L251 69.5ZM147.9 69.5H171.6V69.3L167.1 66.7C163.2 64.4 162.9 62.5 162.9 56.9V20.3L213.3 70.5H213.5V13.8C213.5 8.2 213.8 6.5 217.7 4.1L222.4 1.4V1.2H198.4V1.4L203.1 4.1C207.1 6.5 207.4 8.2 207.4 13.8V50.4L157.2 0.2H157V56.9C157 62.5 156.7 64.2 152.7 66.6L148 69.3L147.9 69.5ZM92.4 69.5H118.5V69.3L114.7 67.2C110.4 64.7 110.4 63 110.4 55.5V15.2C110.4 7.7 110.4 6 114.7 3.5L118.5 1.4V1.2H92.5V1.4L96.3 3.5C100.5 6 100.5 7.7 100.5 15.2V55.5C100.5 63 100.5 64.7 96.3 67.2L92.5 69.3L92.4 69.5ZM0 69.5H26.1V69.3L22.3 67.2C18.1 64.7 18.1 63 18.1 55.5V36.1L43.4 62.4C50 69 54.5 71 60.5 71C63.9026 71.0088 67.2357 70.0367 70.1 68.2V68C64.9 67.2 59.2 64.3 53.4 58.5L26.4 31.2L50.4 10.2C53.7 7.2 56.8 5.5 62 2.9L65.2 1.4V1.2H42.2V1.4L44.2 3.2C46.6 5.5 47 6.9 44.5 9.2L18 32.4V15.2C18 7.7 18 6 22.2 3.5L26 1.4V1.2H0V1.4L3.8 3.5C8 6 8 7.7 8 15.2V55.5C8 63 8 64.7 3.7 67.2L0 69.3V69.5Z" fill="white"/>
</g>
<defs>
<clipPath id="clip0_2_4">
<rect width="561.3" height="75.4" fill="white"/>
</clipPath>
</defs>
</svg>
